<svg xmlns="http://www.w3.org/2000/svg" viewBox="0 0 640.18 108.63"><defs><style>.cls-1{fill:#001f5b;}</style></defs><title>Asset 1</title><g id="Layer_2" data-name="Layer 2"><g id="Layer_1-2" data-name="Layer 1"><path class="cls-1" d="M132.15,41h3.51V52.12h13.08V41h3.54V66.21h-3.54V55.13H135.66V66.21h-3.54Z"/><path class="cls-1" d="M166.23,47.7c5.11,0,7.82,3.78,7.82,8.46,0,.46-.1,1.49-.1,1.49H160.77a5.91,5.91,0,0,0,5.86,6H167a8.63,8.63,0,0,0,5.36-2.1l1.43,2.54a10.76,10.76,0,0,1-7.06,2.59,9.2,9.2,0,0,1-9.58-8.81q0-.33,0-.66C157.19,51.42,161.09,47.7,166.23,47.7Zm4.29,7.36c-.1-3.11-2-4.6-4.36-4.6a5.18,5.18,0,0,0-5.29,4.6Z"/><path class="cls-1" d="M187.7,54.92h.78V54.6c0-3-1.68-4-4-4a9.2,9.2,0,0,0-5,1.75l-1.41-2.56a11.34,11.34,0,0,1,6.75-2.14c4.6,0,7.14,2.5,7.14,7.07V66.18h-3.22V64.49a13.67,13.67,0,0,1,.07-1.43h-.07A6.26,6.26,0,0,1,183,66.64c-3.1,0-6.14-1.9-6.14-5.5C176.81,55.17,184.66,54.92,187.7,54.92Zm-4,8.94c2.93,0,4.82-3.07,4.82-5.75v-.58h-.9c-2.61,0-7.33.18-7.33,3.45,0,1.48,1.16,2.86,3.4,2.86Z"/><path class="cls-1" d="M196.92,41h3.45V60.67c0,2.19.86,2.58,1.93,2.58a5.46,5.46,0,0,0,.61,0v3.07a9.82,9.82,0,0,1-1.15.07c-2,0-4.85-.54-4.85-5.07Z"/><path class="cls-1" d="M207.35,51.16H205V48.38h2.46V43.17h3.36v5.22h4.36v2.78h-4.36v8c0,3.61,2.54,4.07,3.85,4.07a4.21,4.21,0,0,0,.82-.07V66.3a9.59,9.59,0,0,1-1.22.07c-2.3,0-6.9-.71-6.9-6.75Z"/><path class="cls-1" d="M219.39,41h3.45v9.2a15,15,0,0,1-.07,1.49h.07a7.29,7.29,0,0,1,6.68-4c4.25,0,6.22,2.3,6.22,6.9V66.21H232.3V55.42c0-2.54-.54-4.54-3.45-4.54a6,6,0,0,0-5.75,4.46,8.45,8.45,0,0,0-.29,2.39v8.46h-3.45Z"/><path class="cls-1" d="M250.89,60.64a10,10,0,0,0,6.43,2.71c2.36,0,4.36-1.32,4.36-3.71,0-5.46-12.21-4.29-12.21-12,0-3.93,3.45-7,8.14-7a10.35,10.35,0,0,1,7.14,2.54L263.14,46a8.89,8.89,0,0,0-5.54-2.19c-2.68,0-4.6,1.68-4.6,3.68,0,5.22,12.22,3.82,12.22,12,0,3.9-3,7.11-8.05,7.11a11.8,11.8,0,0,1-8.36-3.32Z"/><path class="cls-1" d="M278,47.7a9.2,9.2,0,0,1,6.78,2.64l-1.64,2.43a7.33,7.33,0,0,0-5-2.07,6.15,6.15,0,0,0-6.3,6q0,.21,0,.42a6.26,6.26,0,0,0,6,6.48h.39a8.19,8.19,0,0,0,5.58-2.43l1.39,2.54a9.9,9.9,0,0,1-7.22,2.9,9.47,9.47,0,0,1,0-18.94Z"/><path class="cls-1" d="M289.12,41h3.45v3.54h-3.45Zm0,7.14h3.45V66.21h-3.45Z"/><path class="cls-1" d="M305.86,47.7c5.11,0,7.82,3.78,7.82,8.46,0,.46-.1,1.49-.1,1.49h-13.2a5.91,5.91,0,0,0,5.86,6h.35a8.62,8.62,0,0,0,5.36-2.1l1.43,2.54a10.76,10.76,0,0,1-7,2.58,9.2,9.2,0,0,1-9.58-8.81q0-.33,0-.66C296.8,51.42,300.7,47.7,305.86,47.7Zm4.29,7.36c-.1-3.11-2-4.6-4.36-4.6a5.18,5.18,0,0,0-5.29,4.6Z"/><path class="cls-1" d="M317.88,48.13h3.36v2.39a12.58,12.58,0,0,1-.07,1.32h.07A7.36,7.36,0,0,1,328,47.7c4.26,0,6.22,2.3,6.22,6.9v11.6h-3.45V55.42c0-2.54-.54-4.54-3.45-4.54a5.92,5.92,0,0,0-5.75,4.43,8.56,8.56,0,0,0-.29,2.43v8.46h-3.45Z"/><path class="cls-1" d="M347.81,47.7a9.2,9.2,0,0,1,6.78,2.64L353,52.77a7.33,7.33,0,0,0-5-2.07,6.15,6.15,0,0,0-6.3,6q0,.21,0,.42a6.26,6.26,0,0,0,6,6.48h.33a8.19,8.19,0,0,0,5.58-2.43L355,63.73a9.9,9.9,0,0,1-7.22,2.9,9.47,9.47,0,0,1,0-18.94Z"/><path class="cls-1" d="M366.74,47.7c5.11,0,7.82,3.78,7.82,8.46,0,.46-.1,1.49-.1,1.49H361.28a5.91,5.91,0,0,0,5.86,6h.36a8.62,8.62,0,0,0,5.36-2.1l1.43,2.54a10.76,10.76,0,0,1-7,2.58,9.2,9.2,0,0,1-9.58-8.81q0-.33,0-.66C357.7,51.42,361.6,47.7,366.74,47.7ZM371,55.06c-.1-3.11-2-4.6-4.36-4.6a5.18,5.18,0,0,0-5.29,4.6Z"/><path class="cls-1" d="M379,61.52a7.75,7.75,0,0,0,5.18,2.09c1.51,0,3-.78,3-2.3,0-3.32-9.29-2.64-9.29-8.53,0-3.29,2.93-5.14,6.54-5.14a8.13,8.13,0,0,1,5.82,2l-1.39,2.61a6.61,6.61,0,0,0-4.46-1.61c-1.49,0-3,.64-3,2.22,0,3.25,9.29,2.53,9.29,8.46,0,3-2.58,5.26-6.54,5.26a9.72,9.72,0,0,1-6.9-2.64Z"/><path class="cls-1" d="M404.68,41h3.53V63.13H419.5v3.07H404.68Z"/><path class="cls-1" d="M422.83,41h3.45v3.54h-3.45Zm0,7.14h3.45V66.21h-3.45Z"/><path class="cls-1" d="M431.76,41h3.45v8.26a15.33,15.33,0,0,1-.07,1.54h.07A6.38,6.38,0,0,1,441,47.71c4.86,0,7.93,3.86,7.93,9.46s-3.45,9.46-8.22,9.46A6.5,6.5,0,0,1,435,63.54h-.07a12.25,12.25,0,0,1,.07,1.36v1.32h-3.29Zm8.46,22.63c2.86,0,5.22-2.3,5.22-6.46,0-3.93-2.1-6.46-5.11-6.46-2.71,0-5.22,1.9-5.22,6.5C435.12,60.46,436.8,63.62,440.23,63.62Z"/><path class="cls-1" d="M453.2,48.13h3.31v3.14a13.1,13.1,0,0,1-.07,1.36h.07a6.18,6.18,0,0,1,5.75-4.71,6.1,6.1,0,0,1,.9.07v3.45a5,5,0,0,0-1-.1,5.49,5.49,0,0,0-5.07,4.24,11,11,0,0,0-.43,3.25v7.39h-3.45Z"/><path class="cls-1" d="M476.06,54.92h.78V54.6c0-3-1.68-4-4-4a9.2,9.2,0,0,0-5,1.75l-1.46-2.56a11.34,11.34,0,0,1,6.75-2.14c4.6,0,7.14,2.5,7.14,7.07V66.18h-3.22V64.49a13.67,13.67,0,0,1,.07-1.43h-.07a6.26,6.26,0,0,1-5.75,3.58c-3.11,0-6.14-1.9-6.14-5.5C465.13,55.17,473,54.92,476.06,54.92Zm-4,8.94c2.93,0,4.82-3.07,4.82-5.75v-.58H476c-2.61,0-7.33.18-7.33,3.45,0,1.48,1.12,2.86,3.37,2.86Z"/><path class="cls-1" d="M485.46,48.13h3.36v3.14a12.89,12.89,0,0,1-.07,1.36h.07a6.18,6.18,0,0,1,5.75-4.71,6.1,6.1,0,0,1,.9.07v3.45a5,5,0,0,0-1-.1,5.49,5.49,0,0,0-5.07,4.26,11,11,0,0,0-.43,3.25v7.39h-3.45Z"/><path class="cls-1" d="M497.79,70a4,4,0,0,0,2.1.75,3.69,3.69,0,0,0,3.25-2.65L504,66l-7.58-17.86h3.9L504.9,60c.36.93.68,2.17.68,2.17h.07s.29-1.22.61-2.14l4.39-11.86h3.75L506,69.46a6.21,6.21,0,0,1-5.85,4.25,6.33,6.33,0,0,1-3.45-1.15Z"/><path class="cls-1" d="M527.28,60.64a10,10,0,0,0,6.43,2.71c2.36,0,4.36-1.32,4.36-3.71,0-5.46-12.21-4.29-12.21-12,0-3.93,3.45-7,8.14-7a10.35,10.35,0,0,1,7.14,2.54L539.53,46A8.89,8.89,0,0,0,534,43.85c-2.68,0-4.6,1.68-4.6,3.68,0,5.22,12.22,3.82,12.22,12,0,3.9-3,7.11-8,7.11a11.8,11.8,0,0,1-8.36-3.32Z"/><path class="cls-1" d="M544.54,70a4,4,0,0,0,2.1.75,3.69,3.69,0,0,0,3.25-2.65l.9-2.07-7.58-17.87h3.9l4.54,11.82c.36.93.68,2.17.68,2.17h.07s.29-1.22.61-2.14l4.39-11.86h3.75L552.7,69.46a6.21,6.21,0,0,1-5.85,4.25,6.33,6.33,0,0,1-3.45-1.15Z"/><path class="cls-1" d="M564.3,61.52a7.75,7.75,0,0,0,5.17,2.1c1.51,0,3-.78,3-2.3,0-3.32-9.29-2.64-9.29-8.53,0-3.29,2.93-5.14,6.54-5.14a8.13,8.13,0,0,1,5.82,2l-1.39,2.61a6.61,6.61,0,0,0-4.46-1.61c-1.49,0-3,.64-3,2.22,0,3.25,9.29,2.53,9.29,8.46,0,3-2.58,5.26-6.54,5.26a9.72,9.72,0,0,1-6.9-2.64Z"/><path class="cls-1" d="M580.84,51.16h-2.36V48.38h2.46V43.17h3.36v5.22h4.36v2.78H584.3v8c0,3.61,2.54,4.07,3.85,4.07a4.21,4.21,0,0,0,.82-.07V66.3a9.59,9.59,0,0,1-1.22.07c-2.3,0-6.9-.71-6.9-6.75Z"/><path class="cls-1" d="M600.66,47.7c5.11,0,7.82,3.78,7.82,8.46,0,.46-.1,1.49-.1,1.49H595.2a5.91,5.91,0,0,0,5.86,6h.35a8.62,8.62,0,0,0,5.36-2.1l1.43,2.54a10.76,10.76,0,0,1-7,2.58,9.2,9.2,0,0,1-9.58-8.81q0-.33,0-.66C591.63,51.42,595.52,47.7,600.66,47.7ZM605,55.06c-.1-3.11-2-4.6-4.36-4.6a5.17,5.17,0,0,0-5.29,4.6Z"/><path class="cls-1" d="M612.7,48.13h3.36v2.39a12.78,12.78,0,0,1-.07,1.32h.07a7.06,7.06,0,0,1,6.22-4.14c3,0,4.82,1.39,5.43,4.11h.07a7.28,7.28,0,0,1,6.43-4.11c4.07,0,6,2.3,6,6.9v11.6h-3.45V55.38c0-2.54-.51-4.53-3.22-4.53-2.54,0-4.43,2.14-5.07,4.6a10.8,10.8,0,0,0-.25,2.5v8.26h-3.45V55.38c0-2.36-.36-4.53-3.14-4.53s-4.53,2.17-5.23,4.71a10,10,0,0,0-.22,2.3v8.26h-3.45Z"/><path class="cls-1" d="M54.27,108.63l-.27-.26-54-54L54.27,0l54.31,54.31-.27.27ZM1,54.31l53.25,53.25,53.25-53.25L54.27,1.06Z"/><path class="cls-1" d="M63.71,107.8.78,63.75,1,63.44,44.84.82l62.92,44.06ZM1.83,63.56l61.69,43.2,43.2-61.69L45,1.87Z"/><path class="cls-1" d="M72.85,105.35l-.34-.16L3.23,72.89,35.7,3.27l69.62,32.46ZM4.23,72.53l68.26,31.83L104.32,36.1,36.06,4.27Z"/><path class="cls-1" d="M81.43,101.35l-.36-.1L7.24,81.47,27.12,7.28l74.19,19.88ZM8.16,80.94l72.75,19.49L100.4,27.68,27.65,8.2Z"/><path class="cls-1" d="M89.19,95.92h-.37L12.67,89.23l6.69-76.52L95.88,19.4ZM13.48,88.54l75,6.56L95,20.1,20,13.54Z"/><path class="cls-1" d="M37.45,61.37V54.85H31.11v6.52h-4V44.92h4v6.47h6.34V44.92h4V61.37Z"/><path class="cls-1" d="M50.08,61.6a9.62,9.62,0,0,1-4.61-1.13l-.39-3.74a8.69,8.69,0,0,0,4.74,1.57c1.42,0,2.32-.64,2.32-1.65s-.59-1.5-2.11-1.91c-3.22-.88-4.72-2.66-4.72-5.16,0-2.73,2-4.92,5.59-4.92a9,9,0,0,1,4.12.93l-.72,3.22A7.08,7.08,0,0,0,51.19,48c-1.39,0-2,.62-2,1.42s.7,1.26,2,1.62c3.14.88,5,2.5,5,5.41C56.13,59.59,54.07,61.6,50.08,61.6Z"/><path class="cls-1" d="M59.58,61.37V44.92h4V58.09h6.18v3.27Z"/><path class="cls-1" d="M77.23,61.6a9.62,9.62,0,0,1-4.61-1.13l-.39-3.74A8.69,8.69,0,0,0,77,58.3c1.42,0,2.32-.64,2.32-1.65s-.59-1.5-2.11-1.91c-3.22-.88-4.72-2.66-4.72-5.16,0-2.73,2-4.92,5.59-4.92a9,9,0,0,1,4.12.93l-.72,3.22a7.08,7.08,0,0,0-3.1-.81c-1.39,0-2,.62-2,1.42s.7,1.26,2,1.62c3.14.88,5,2.5,5,5.41C83.29,59.59,81.23,61.6,77.23,61.6Z"/></g></g></svg>